<svg id="Layer_1" data-name="Layer 1" xmlns="http://www.w3.org/2000/svg" viewBox="0 0 1000 1000"><title>BKash-Group-of-Logos</title><circle cx="500" cy="500" r="377.294" fill="#01102d"/><path d="M434.409,516.794c-50.042-64.272-99.141-127.224-148.146-190.177.283-.471.471-.942.754-1.413,64.272,7.727,128.544,15.455,193.758,23.277C465.225,404.554,449.958,459.873,434.409,516.794Z" fill="#fff"/><path d="M442.136,518.207c15.55-56.449,30.911-112.145,46.649-169.443,47.78,66.627,94.618,132.03,141.361,197.339-.283.471-.472,1.036-.754,1.507C567.288,537.9,505.183,528.2,442.136,518.207Z" fill="#fff"/><path d="M442.513,526.5c60.6,9.706,119.874,19.13,179.245,28.649a12.273,12.273,0,0,0,.377,1.79C570.869,582.668,519.508,608.4,467.3,634.594,459.006,598.5,450.9,563.254,442.513,526.5Z" fill="#fff"/><path d="M375.509,731.379c19.225-67.947,38.544-135.895,58.24-205.255,1.037,2.356,1.791,3.487,2.073,4.712,9.236,41.465,18.377,82.931,27.707,124.4.942,4.146,0,6.6-3.3,9.235-26.576,21.487-52.963,43.162-79.445,64.743-1.225,1.037-2.544,1.885-3.864,2.827A10.144,10.144,0,0,1,375.509,731.379Z" fill="#fff"/><path d="M582.083,467.506c31.288-5.654,61.256-11.026,93.015-16.775-11.968,32.513-23.371,63.8-35.434,96.691C620.25,520.375,601.591,494.553,582.083,467.506Z" fill="#fff"/><path d="M491.9,630.447q69.408-35.34,138.816-70.774c.377.283.754.66,1.131.943-1.7,5.277-3.393,10.649-5.372,15.832-.471,1.131-2.073,2.073-3.3,2.544q-64.743,26.153-129.58,52.209c-.377.1-.754.1-1.037.189C492.367,631.107,492.178,630.824,491.9,630.447Z" fill="#fff"/><path d="M719.108,491.16H667.559c4.9-13.287,9.518-26.01,13.853-37.6q19.226,18.093,38.262,36C719.485,490.03,719.3,490.6,719.108,491.16Z" fill="#fff"/><path d="M359.3,434.711q-39.44-37.32-78.973-74.733c.189-.471.377-.942.566-1.508,6.691,0,13.287-.094,19.979.095,1.036,0,2.261,1.225,3.015,2.167q27.849,35.623,55.508,71.34a11.44,11.44,0,0,1,.848,1.885C359.959,434.145,359.676,434.428,359.3,434.711Z" fill="#fff"/></svg>