<svg id="Layer_1" data-name="Layer 1" xmlns="http://www.w3.org/2000/svg" xmlns:xlink="http://www.w3.org/1999/xlink" viewBox="0 0 1000 1000"><defs><style>.cls-1{fill:url(#radial-gradient);}.cls-2{fill:#01102d;}.cls-3{fill:#fff;}</style><radialGradient id="radial-gradient" cx="5119.4" cy="6744.68" r="406.03" gradientTransform="matrix(0, -1.98, -1.84, 0, 12746.16, 11115.08)" gradientUnits="userSpaceOnUse"><stop offset="0" stop-color="#fd5"/><stop offset="0.1" stop-color="#fd5"/><stop offset="0.5" stop-color="#ff543e"/><stop offset="1" stop-color="#c837ab"/></radialGradient></defs><path class="cls-1" d="M500.13,94c-169.54,0-219.13.17-228.77,1-34.79,2.89-56.44,8.37-80,20.12a162,162,0,0,0-46.66,34.15Q106,189.38,97.63,248c-2.74,19-3.54,22.86-3.71,119.86-.06,32.33,0,74.89,0,132,0,169.41.19,218.94,1,228.56,2.81,33.86,8.12,55.16,19.37,78.46,21.49,44.6,62.53,78.08,110.87,90.58,16.75,4.31,35.24,6.68,59,7.8,10.06.44,112.57.75,215.13.75s205.14-.12,215-.62c27.48-1.29,43.44-3.44,61.09-8a170,170,0,0,0,110.88-90.76c11-22.74,16.61-44.85,19.14-76.94.55-7,.78-118.54.78-229.94S905.85,277,905.3,270c-2.56-32.61-8.15-54.54-19.53-77.71A161.14,161.14,0,0,0,851,144.65c-26.87-25.66-59.72-41.27-98.88-46.92-19-2.74-22.75-3.55-119.82-3.72Z"/><path class="cls-2" d="M500.13,94c-169.54,0-219.13.17-228.77,1-34.79,2.89-56.44,8.37-80,20.12a162,162,0,0,0-46.66,34.15Q106,189.38,97.63,248c-2.74,19-3.54,22.86-3.71,119.86-.06,32.33,0,74.89,0,132,0,169.41.19,218.94,1,228.56,2.81,33.86,8.12,55.16,19.37,78.46,21.49,44.6,62.53,78.08,110.87,90.58,16.75,4.31,35.24,6.68,59,7.8,10.06.44,112.57.75,215.13.75s205.14-.12,215-.62c27.48-1.29,43.44-3.44,61.09-8a170,170,0,0,0,110.88-90.76c11-22.74,16.61-44.85,19.14-76.94.55-7,.78-118.54.78-229.94S905.85,277,905.3,270c-2.56-32.61-8.15-54.54-19.53-77.71A161.14,161.14,0,0,0,851,144.65c-26.87-25.66-59.72-41.27-98.88-46.92-19-2.74-22.75-3.55-119.82-3.72Z"/><path class="cls-3" d="M500,200.2c-81.44,0-91.65.35-123.64,1.81s-53.71,6.52-72.77,13.93a153.38,153.38,0,0,0-87.72,87.68c-7.43,19.07-12.49,40.87-13.93,72.78s-1.81,42.2-1.81,123.63.37,91.62,1.82,123.61,6.52,53.7,13.93,72.77a153.47,153.47,0,0,0,87.67,87.72c19.08,7.41,40.87,12.47,72.79,13.93s42.19,1.81,123.62,1.81,91.62-.36,123.6-1.81,53.74-6.52,72.82-13.93A153.68,153.68,0,0,0,784,696.41c7.37-19.07,12.43-40.86,13.93-72.77s1.81-42.18,1.81-123.61-.38-91.65-1.81-123.63-6.56-53.71-13.93-72.77a153.4,153.4,0,0,0-87.7-87.69c-19.12-7.41-40.92-12.47-72.84-13.93s-42.16-1.81-123.62-1.81Zm-26.9,54H500c80.05,0,89.54.29,121.15,1.73,29.24,1.33,45.1,6.22,55.67,10.32a99.38,99.38,0,0,1,56.9,56.91c4.1,10.55,9,26.42,10.32,55.65,1.44,31.61,1.75,41.11,1.75,121.13s-.31,89.51-1.75,121.12c-1.33,29.23-6.22,45.1-10.32,55.65a99.39,99.39,0,0,1-56.9,56.87c-10.55,4.13-26.43,9-55.67,10.33-31.6,1.44-41.1,1.75-121.15,1.75s-89.56-.31-121.16-1.75c-29.24-1.34-45.1-6.23-55.68-10.33a99.38,99.38,0,0,1-56.92-56.89c-4.1-10.56-9-26.42-10.32-55.66-1.44-31.61-1.73-41.1-1.73-121.17s.29-89.51,1.73-121.12c1.33-29.23,6.22-45.1,10.32-55.67a99.4,99.4,0,0,1,56.92-56.92c10.57-4.12,26.44-9,55.68-10.34,27.66-1.25,38.38-1.62,94.26-1.68ZM660,304a36,36,0,1,0,36,36,36,36,0,0,0-36-36Zm-160,42a154,154,0,1,0,154,154A154,154,0,0,0,500,346.06Zm0,54A99.95,99.95,0,1,1,400,500,99.94,99.94,0,0,1,500,400.09Z"/></svg>